<svg xmlns="http://www.w3.org/2000/svg" version="1.1" xmlns:xlink="http://www.w3.org/1999/xlink" xmlns:svgjs="http://svgjs.com/svgjs" width="1440" height="560" preserveAspectRatio="none" viewBox="0 0 1440 560"><g mask="url(&quot;#SvgjsMask1000&quot;)" fill="none"><rect width="1440" height="560" x="0" y="0" fill="#0e2a47"></rect><path d="M-69.26 343.46L-69.26 343.46" stroke="#132e65" stroke-width="1.5"></path><path d="M-69.26 343.46L95.59 367.26" stroke="#132e65" stroke-width="1.5"></path><path d="M-69.26 343.46L-81.4 536.04" stroke="#132e65" stroke-width="1.5"></path><path d="M-81.4 536.04L-81.4 536.04" stroke="#132e65" stroke-width="1.5"></path><path d="M-81.4 536.04L-59.82 673.43" stroke="#132e65" stroke-width="1.5"></path><path d="M-81.4 536.04L68.34 529.44" stroke="#132e65" stroke-width="1.5"></path><path d="M-81.4 536.04L70.71 653.85" stroke="#132e65" stroke-width="1.5"></path><path d="M-59.82 673.43L-59.82 673.43" stroke="#132e65" stroke-width="1.5"></path><path d="M-59.82 673.43L70.71 653.85" stroke="#132e65" stroke-width="1.5"></path><path d="M-59.82 673.43L68.34 529.44" stroke="#132e65" stroke-width="1.5"></path><path d="M95.59 367.26L95.59 367.26" stroke="#132e65" stroke-width="1.5"></path><path d="M95.59 367.26L216.01 405.29" stroke="#132e65" stroke-width="1.5"></path><path d="M95.59 367.26L68.34 529.44" stroke="#132e65" stroke-width="1.5"></path><path d="M95.59 367.26L243.9 528.78" stroke="#132e65" stroke-width="1.5"></path><path d="M68.34 529.44L68.34 529.44" stroke="#132e65" stroke-width="1.5"></path><path d="M68.34 529.44L70.71 653.85" stroke="#132e65" stroke-width="1.5"></path><path d="M68.34 529.44L243.9 528.78" stroke="#132e65" stroke-width="1.5"></path><path d="M70.71 653.85L70.71 653.85" stroke="#132e65" stroke-width="1.5"></path><path d="M70.71 653.85L213.17 703.83" stroke="#132e65" stroke-width="1.5"></path><path d="M70.71 653.85L243.9 528.78" stroke="#132e65" stroke-width="1.5"></path><path d="M70.71 653.85L95.59 367.26" stroke="#132e65" stroke-width="1.5"></path><path d="M216.01 405.29L216.01 405.29" stroke="#132e65" stroke-width="1.5"></path><path d="M216.01 405.29L243.9 528.78" stroke="#132e65" stroke-width="1.5"></path><path d="M243.9 528.78L243.9 528.78" stroke="#132e65" stroke-width="1.5"></path><path d="M243.9 528.78L351.06 542.14" stroke="#132e65" stroke-width="1.5"></path><path d="M243.9 528.78L368.76 410.01" stroke="#132e65" stroke-width="1.5"></path><path d="M213.17 703.83L213.17 703.83" stroke="#132e65" stroke-width="1.5"></path><path d="M213.17 703.83L243.9 528.78" stroke="#132e65" stroke-width="1.5"></path><path d="M213.17 703.83L395.36 645.6" stroke="#132e65" stroke-width="1.5"></path><path d="M213.17 703.83L351.06 542.14" stroke="#132e65" stroke-width="1.5"></path><path d="M213.17 703.83L68.34 529.44" stroke="#132e65" stroke-width="1.5"></path><path d="M213.17 703.83L-59.82 673.43" stroke="#132e65" stroke-width="1.5"></path><path d="M368.76 410.01L368.76 410.01" stroke="#132e65" stroke-width="1.5"></path><path d="M368.76 410.01L351.06 542.14" stroke="#132e65" stroke-width="1.5"></path><path d="M368.76 410.01L491.17 499.35" stroke="#132e65" stroke-width="1.5"></path><path d="M368.76 410.01L216.01 405.29" stroke="#132e65" stroke-width="1.5"></path><path d="M368.76 410.01L551.35 405.04" stroke="#132e65" stroke-width="1.5"></path><path d="M368.76 410.01L395.36 645.6" stroke="#132e65" stroke-width="1.5"></path><path d="M351.06 542.14L351.06 542.14" stroke="#132e65" stroke-width="1.5"></path><path d="M351.06 542.14L395.36 645.6" stroke="#132e65" stroke-width="1.5"></path><path d="M351.06 542.14L491.17 499.35" stroke="#132e65" stroke-width="1.5"></path><path d="M395.36 645.6L395.36 645.6" stroke="#132e65" stroke-width="1.5"></path><path d="M395.36 645.6L555.58 701.75" stroke="#132e65" stroke-width="1.5"></path><path d="M395.36 645.6L491.17 499.35" stroke="#132e65" stroke-width="1.5"></path><path d="M395.36 645.6L243.9 528.78" stroke="#132e65" stroke-width="1.5"></path><path d="M551.35 405.04L551.35 405.04" stroke="#132e65" stroke-width="1.5"></path><path d="M551.35 405.04L491.17 499.35" stroke="#132e65" stroke-width="1.5"></path><path d="M551.35 405.04L709.19 363.91" stroke="#132e65" stroke-width="1.5"></path><path d="M551.35 405.04L710.68 527.16" stroke="#132e65" stroke-width="1.5"></path><path d="M551.35 405.04L705.05 239.2" stroke="#132e65" stroke-width="1.5"></path><path d="M491.17 499.35L491.17 499.35" stroke="#132e65" stroke-width="1.5"></path><path d="M555.58 701.75L555.58 701.75" stroke="#132e65" stroke-width="1.5"></path><path d="M555.58 701.75L678.12 706.58" stroke="#132e65" stroke-width="1.5"></path><path d="M555.58 701.75L491.17 499.35" stroke="#132e65" stroke-width="1.5"></path><path d="M705.05 239.2L705.05 239.2" stroke="#132e65" stroke-width="1.5"></path><path d="M705.05 239.2L811.59 254.01" stroke="#132e65" stroke-width="1.5"></path><path d="M705.05 239.2L709.19 363.91" stroke="#132e65" stroke-width="1.5"></path><path d="M705.05 239.2L798.57 389.65" stroke="#132e65" stroke-width="1.5"></path><path d="M705.05 239.2L937.76 251.71" stroke="#132e65" stroke-width="1.5"></path><path d="M705.05 239.2L789.4 513.24" stroke="#132e65" stroke-width="1.5"></path><path d="M709.19 363.91L709.19 363.91" stroke="#132e65" stroke-width="1.5"></path><path d="M709.19 363.91L798.57 389.65" stroke="#132e65" stroke-width="1.5"></path><path d="M709.19 363.91L811.59 254.01" stroke="#132e65" stroke-width="1.5"></path><path d="M710.68 527.16L710.68 527.16" stroke="#132e65" stroke-width="1.5"></path><path d="M710.68 527.16L789.4 513.24" stroke="#132e65" stroke-width="1.5"></path><path d="M710.68 527.16L798.57 389.65" stroke="#132e65" stroke-width="1.5"></path><path d="M710.68 527.16L709.19 363.91" stroke="#132e65" stroke-width="1.5"></path><path d="M710.68 527.16L678.12 706.58" stroke="#132e65" stroke-width="1.5"></path><path d="M678.12 706.58L678.12 706.58" stroke="#132e65" stroke-width="1.5"></path><path d="M678.12 706.58L844.37 710.94" stroke="#132e65" stroke-width="1.5"></path><path d="M811.59 254.01L811.59 254.01" stroke="#132e65" stroke-width="1.5"></path><path d="M811.59 254.01L937.76 251.71" stroke="#132e65" stroke-width="1.5"></path><path d="M811.59 254.01L798.57 389.65" stroke="#132e65" stroke-width="1.5"></path><path d="M811.59 254.01L978.41 375.5" stroke="#132e65" stroke-width="1.5"></path><path d="M811.59 254.01L975.65 60.17" stroke="#132e65" stroke-width="1.5"></path><path d="M798.57 389.65L798.57 389.65" stroke="#132e65" stroke-width="1.5"></path><path d="M798.57 389.65L789.4 513.24" stroke="#132e65" stroke-width="1.5"></path><path d="M789.4 513.24L789.4 513.24" stroke="#132e65" stroke-width="1.5"></path><path d="M789.4 513.24L709.19 363.91" stroke="#132e65" stroke-width="1.5"></path><path d="M844.37 710.94L844.37 710.94" stroke="#132e65" stroke-width="1.5"></path><path d="M844.37 710.94L969.11 648.59" stroke="#132e65" stroke-width="1.5"></path><path d="M844.37 710.94L789.4 513.24" stroke="#132e65" stroke-width="1.5"></path><path d="M844.37 710.94L968.61 543.41" stroke="#132e65" stroke-width="1.5"></path><path d="M948.79 -64.97L948.79 -64.97" stroke="#132e65" stroke-width="1.5"></path><path d="M948.79 -64.97L975.65 60.17" stroke="#132e65" stroke-width="1.5"></path><path d="M948.79 -64.97L1119.73 -82.3" stroke="#132e65" stroke-width="1.5"></path><path d="M948.79 -64.97L1118.83 65.68" stroke="#132e65" stroke-width="1.5"></path><path d="M948.79 -64.97L937.76 251.71" stroke="#132e65" stroke-width="1.5"></path><path d="M948.79 -64.97L1147.25 193.75" stroke="#132e65" stroke-width="1.5"></path><path d="M948.79 -64.97L1294.22 -54.03" stroke="#132e65" stroke-width="1.5"></path><path d="M975.65 60.17L975.65 60.17" stroke="#132e65" stroke-width="1.5"></path><path d="M975.65 60.17L1118.83 65.68" stroke="#132e65" stroke-width="1.5"></path><path d="M975.65 60.17L937.76 251.71" stroke="#132e65" stroke-width="1.5"></path><path d="M937.76 251.71L937.76 251.71" stroke="#132e65" stroke-width="1.5"></path><path d="M937.76 251.71L978.41 375.5" stroke="#132e65" stroke-width="1.5"></path><path d="M978.41 375.5L978.41 375.5" stroke="#132e65" stroke-width="1.5"></path><path d="M978.41 375.5L1117.3 375.85" stroke="#132e65" stroke-width="1.5"></path><path d="M978.41 375.5L968.61 543.41" stroke="#132e65" stroke-width="1.5"></path><path d="M978.41 375.5L798.57 389.65" stroke="#132e65" stroke-width="1.5"></path><path d="M978.41 375.5L1105.77 527.77" stroke="#132e65" stroke-width="1.5"></path><path d="M968.61 543.41L968.61 543.41" stroke="#132e65" stroke-width="1.5"></path><path d="M968.61 543.41L969.11 648.59" stroke="#132e65" stroke-width="1.5"></path><path d="M969.11 648.59L969.11 648.59" stroke="#132e65" stroke-width="1.5"></path><path d="M1119.73 -82.3L1119.73 -82.3" stroke="#132e65" stroke-width="1.5"></path><path d="M1119.73 -82.3L1118.83 65.68" stroke="#132e65" stroke-width="1.5"></path><path d="M1119.73 -82.3L1294.22 -54.03" stroke="#132e65" stroke-width="1.5"></path><path d="M1119.73 -82.3L975.65 60.17" stroke="#132e65" stroke-width="1.5"></path><path d="M1119.73 -82.3L1312.44 40.92" stroke="#132e65" stroke-width="1.5"></path><path d="M1118.83 65.68L1118.83 65.68" stroke="#132e65" stroke-width="1.5"></path><path d="M1118.83 65.68L1147.25 193.75" stroke="#132e65" stroke-width="1.5"></path><path d="M1118.83 65.68L1312.44 40.92" stroke="#132e65" stroke-width="1.5"></path><path d="M1118.83 65.68L1294.22 -54.03" stroke="#132e65" stroke-width="1.5"></path><path d="M1147.25 193.75L1147.25 193.75" stroke="#132e65" stroke-width="1.5"></path><path d="M1147.25 193.75L1276.88 240.39" stroke="#132e65" stroke-width="1.5"></path><path d="M1117.3 375.85L1117.3 375.85" stroke="#132e65" stroke-width="1.5"></path><path d="M1117.3 375.85L1105.77 527.77" stroke="#132e65" stroke-width="1.5"></path><path d="M1117.3 375.85L1288.32 379.5" stroke="#132e65" stroke-width="1.5"></path><path d="M1117.3 375.85L1147.25 193.75" stroke="#132e65" stroke-width="1.5"></path><path d="M1105.77 527.77L1105.77 527.77" stroke="#132e65" stroke-width="1.5"></path><path d="M1105.77 527.77L968.61 543.41" stroke="#132e65" stroke-width="1.5"></path><path d="M1105.77 527.77L1124.68 688.41" stroke="#132e65" stroke-width="1.5"></path><path d="M1105.77 527.77L969.11 648.59" stroke="#132e65" stroke-width="1.5"></path><path d="M1124.68 688.41L1124.68 688.41" stroke="#132e65" stroke-width="1.5"></path><path d="M1124.68 688.41L1273.33 708" stroke="#132e65" stroke-width="1.5"></path><path d="M1124.68 688.41L969.11 648.59" stroke="#132e65" stroke-width="1.5"></path><path d="M1124.68 688.41L968.61 543.41" stroke="#132e65" stroke-width="1.5"></path><path d="M1124.68 688.41L1403.05 692.4" stroke="#132e65" stroke-width="1.5"></path><path d="M1294.22 -54.03L1294.22 -54.03" stroke="#132e65" stroke-width="1.5"></path><path d="M1294.22 -54.03L1312.44 40.92" stroke="#132e65" stroke-width="1.5"></path><path d="M1294.22 -54.03L1425.89 -47.23" stroke="#132e65" stroke-width="1.5"></path><path d="M1294.22 -54.03L1446.82 107.04" stroke="#132e65" stroke-width="1.5"></path><path d="M1294.22 -54.03L1147.25 193.75" stroke="#132e65" stroke-width="1.5"></path><path d="M1312.44 40.92L1312.44 40.92" stroke="#132e65" stroke-width="1.5"></path><path d="M1312.44 40.92L1425.89 -47.23" stroke="#132e65" stroke-width="1.5"></path><path d="M1312.44 40.92L1446.82 107.04" stroke="#132e65" stroke-width="1.5"></path><path d="M1312.44 40.92L1276.88 240.39" stroke="#132e65" stroke-width="1.5"></path><path d="M1276.88 240.39L1276.88 240.39" stroke="#132e65" stroke-width="1.5"></path><path d="M1276.88 240.39L1288.32 379.5" stroke="#132e65" stroke-width="1.5"></path><path d="M1276.88 240.39L1437.42 259.68" stroke="#132e65" stroke-width="1.5"></path><path d="M1276.88 240.39L1436.64 349.45" stroke="#132e65" stroke-width="1.5"></path><path d="M1288.32 379.5L1288.32 379.5" stroke="#132e65" stroke-width="1.5"></path><path d="M1288.32 379.5L1436.64 349.45" stroke="#132e65" stroke-width="1.5"></path><path d="M1288.32 379.5L1437.42 259.68" stroke="#132e65" stroke-width="1.5"></path><path d="M1273.33 708L1273.33 708" stroke="#132e65" stroke-width="1.5"></path><path d="M1273.33 708L1403.05 692.4" stroke="#132e65" stroke-width="1.5"></path><path d="M1273.33 708L1451.27 547.25" stroke="#132e65" stroke-width="1.5"></path><path d="M1273.33 708L1105.77 527.77" stroke="#132e65" stroke-width="1.5"></path><path d="M1425.89 -47.23L1425.89 -47.23" stroke="#132e65" stroke-width="1.5"></path><path d="M1425.89 -47.23L1446.82 107.04" stroke="#132e65" stroke-width="1.5"></path><path d="M1446.82 107.04L1446.82 107.04" stroke="#132e65" stroke-width="1.5"></path><path d="M1446.82 107.04L1552.88 212.97" stroke="#132e65" stroke-width="1.5"></path><path d="M1437.42 259.68L1437.42 259.68" stroke="#132e65" stroke-width="1.5"></path><path d="M1437.42 259.68L1436.64 349.45" stroke="#132e65" stroke-width="1.5"></path><path d="M1437.42 259.68L1552.88 212.97" stroke="#132e65" stroke-width="1.5"></path><path d="M1437.42 259.68L1446.82 107.04" stroke="#132e65" stroke-width="1.5"></path><path d="M1437.42 259.68L1594.85 354.29" stroke="#132e65" stroke-width="1.5"></path><path d="M1436.64 349.45L1436.64 349.45" stroke="#132e65" stroke-width="1.5"></path><path d="M1436.64 349.45L1594.85 354.29" stroke="#132e65" stroke-width="1.5"></path><path d="M1436.64 349.45L1552.88 212.97" stroke="#132e65" stroke-width="1.5"></path><path d="M1451.27 547.25L1451.27 547.25" stroke="#132e65" stroke-width="1.5"></path><path d="M1451.27 547.25L1403.05 692.4" stroke="#132e65" stroke-width="1.5"></path><path d="M1451.27 547.25L1602.65 515.29" stroke="#132e65" stroke-width="1.5"></path><path d="M1451.27 547.25L1583.19 693.52" stroke="#132e65" stroke-width="1.5"></path><path d="M1451.27 547.25L1436.64 349.45" stroke="#132e65" stroke-width="1.5"></path><path d="M1403.05 692.4L1403.05 692.4" stroke="#132e65" stroke-width="1.5"></path><path d="M1403.05 692.4L1583.19 693.52" stroke="#132e65" stroke-width="1.5"></path><path d="M1597.58 -75.49L1597.58 -75.49" stroke="#132e65" stroke-width="1.5"></path><path d="M1597.58 -75.49L1607.92 96.86" stroke="#132e65" stroke-width="1.5"></path><path d="M1597.58 -75.49L1425.89 -47.23" stroke="#132e65" stroke-width="1.5"></path><path d="M1597.58 -75.49L1446.82 107.04" stroke="#132e65" stroke-width="1.5"></path><path d="M1597.58 -75.49L1552.88 212.97" stroke="#132e65" stroke-width="1.5"></path><path d="M1597.58 -75.49L1294.22 -54.03" stroke="#132e65" stroke-width="1.5"></path><path d="M1607.92 96.86L1607.92 96.86" stroke="#132e65" stroke-width="1.5"></path><path d="M1607.92 96.86L1552.88 212.97" stroke="#132e65" stroke-width="1.5"></path><path d="M1607.92 96.86L1446.82 107.04" stroke="#132e65" stroke-width="1.5"></path><path d="M1607.92 96.86L1425.89 -47.23" stroke="#132e65" stroke-width="1.5"></path><path d="M1552.88 212.97L1552.88 212.97" stroke="#132e65" stroke-width="1.5"></path><path d="M1552.88 212.97L1594.85 354.29" stroke="#132e65" stroke-width="1.5"></path><path d="M1594.85 354.29L1594.85 354.29" stroke="#132e65" stroke-width="1.5"></path><path d="M1594.85 354.29L1602.65 515.29" stroke="#132e65" stroke-width="1.5"></path><path d="M1602.65 515.29L1602.65 515.29" stroke="#132e65" stroke-width="1.5"></path><path d="M1583.19 693.52L1583.19 693.52" stroke="#132e65" stroke-width="1.5"></path><path d="M1583.19 693.52L1602.65 515.29" stroke="#132e65" stroke-width="1.5"></path><path d="M1583.19 693.52L1273.33 708" stroke="#132e65" stroke-width="1.5"></path><path d="M1583.19 693.52L1594.85 354.29" stroke="#132e65" stroke-width="1.5"></path><path d="M1583.19 693.52L1436.64 349.45" stroke="#132e65" stroke-width="1.5"></path><circle r="5" cx="-69.26" cy="343.46" fill="#132e65"></circle><circle r="5" cx="-81.4" cy="536.04" fill="#132e65"></circle><circle r="5" cx="-59.82" cy="673.43" fill="#132e65"></circle><circle r="5" cx="95.59" cy="367.26" fill="#132e65"></circle><circle r="5" cx="68.34" cy="529.44" fill="#132e65"></circle><circle r="5" cx="70.71" cy="653.85" fill="#132e65"></circle><circle r="5" cx="216.01" cy="405.29" fill="#132e65"></circle><circle r="5" cx="243.9" cy="528.78" fill="#132e65"></circle><circle r="5" cx="213.17" cy="703.83" fill="#132e65"></circle><circle r="5" cx="368.76" cy="410.01" fill="#132e65"></circle><circle r="5" cx="351.06" cy="542.14" fill="#132e65"></circle><circle r="5" cx="395.36" cy="645.6" fill="#132e65"></circle><circle r="5" cx="551.35" cy="405.04" fill="#132e65"></circle><circle r="5" cx="491.17" cy="499.35" fill="#132e65"></circle><circle r="5" cx="555.58" cy="701.75" fill="#132e65"></circle><circle r="5" cx="705.05" cy="239.2" fill="#132e65"></circle><circle r="5" cx="709.19" cy="363.91" fill="#132e65"></circle><circle r="5" cx="710.68" cy="527.16" fill="#132e65"></circle><circle r="5" cx="678.12" cy="706.58" fill="#132e65"></circle><circle r="5" cx="811.59" cy="254.01" fill="#132e65"></circle><circle r="5" cx="798.57" cy="389.65" fill="#132e65"></circle><circle r="5" cx="789.4" cy="513.24" fill="#132e65"></circle><circle r="5" cx="844.37" cy="710.94" fill="#132e65"></circle><circle r="5" cx="948.79" cy="-64.97" fill="#132e65"></circle><circle r="5" cx="975.65" cy="60.17" fill="#132e65"></circle><circle r="5" cx="937.76" cy="251.71" fill="#132e65"></circle><circle r="5" cx="978.41" cy="375.5" fill="#132e65"></circle><circle r="5" cx="968.61" cy="543.41" fill="#132e65"></circle><circle r="5" cx="969.11" cy="648.59" fill="#132e65"></circle><circle r="5" cx="1119.73" cy="-82.3" fill="#132e65"></circle><circle r="5" cx="1118.83" cy="65.68" fill="#132e65"></circle><circle r="5" cx="1147.25" cy="193.75" fill="#132e65"></circle><circle r="5" cx="1117.3" cy="375.85" fill="#132e65"></circle><circle r="5" cx="1105.77" cy="527.77" fill="#132e65"></circle><circle r="5" cx="1124.68" cy="688.41" fill="#132e65"></circle><circle r="5" cx="1294.22" cy="-54.03" fill="#132e65"></circle><circle r="5" cx="1312.44" cy="40.92" fill="#132e65"></circle><circle r="5" cx="1276.88" cy="240.39" fill="#132e65"></circle><circle r="5" cx="1288.32" cy="379.5" fill="#132e65"></circle><circle r="5" cx="1273.33" cy="708" fill="#132e65"></circle><circle r="5" cx="1425.89" cy="-47.23" fill="#132e65"></circle><circle r="5" cx="1446.82" cy="107.04" fill="#132e65"></circle><circle r="5" cx="1437.42" cy="259.68" fill="#132e65"></circle><circle r="5" cx="1436.64" cy="349.45" fill="#132e65"></circle><circle r="5" cx="1451.27" cy="547.25" fill="#132e65"></circle><circle r="5" cx="1403.05" cy="692.4" fill="#132e65"></circle><circle r="5" cx="1597.58" cy="-75.49" fill="#132e65"></circle><circle r="5" cx="1607.92" cy="96.86" fill="#132e65"></circle><circle r="5" cx="1552.88" cy="212.97" fill="#132e65"></circle><circle r="5" cx="1594.85" cy="354.29" fill="#132e65"></circle><circle r="5" cx="1602.65" cy="515.29" fill="#132e65"></circle><circle r="5" cx="1583.19" cy="693.52" fill="#132e65"></circle><path d="M-64.02 536.39L-64.02 536.39" stroke="hsl(228.5, 77.2%, 51.5%)" stroke-width="1.5"></path><path d="M-64.02 536.39L68.17 497.88" stroke="hsl(228.5, 77.2%, 51.5%)" stroke-width="1.5"></path><path d="M-64.02 536.39L107.07 701.89" stroke="hsl(228.5, 77.2%, 51.5%)" stroke-width="1.5"></path><path d="M-64.02 536.39L190.69 558.31" stroke="hsl(228.5, 77.2%, 51.5%)" stroke-width="1.5"></path><path d="M-64.02 536.39L214.13 654.22" stroke="hsl(228.5, 77.2%, 51.5%)" stroke-width="1.5"></path><path d="M1105.91 400.22L1105.91 400.22" stroke="hsl(228.5, 77.2%, 51.5%)" stroke-width="1.5"></path><path d="M1105.91 400.22L1148.36 555.08" stroke="hsl(228.5, 77.2%, 51.5%)" stroke-width="1.5"></path><path d="M1105.91 400.22L1008.19 529.68" stroke="hsl(228.5, 77.2%, 51.5%)" stroke-width="1.5"></path><path d="M1105.91 400.22L1290.2 378.57" stroke="hsl(228.5, 77.2%, 51.5%)" stroke-width="1.5"></path><path d="M68.17 497.88L68.17 497.88" stroke="hsl(228.5, 77.2%, 51.5%)" stroke-width="1.5"></path><path d="M68.17 497.88L190.69 558.31" stroke="hsl(228.5, 77.2%, 51.5%)" stroke-width="1.5"></path><path d="M107.07 701.89L107.07 701.89" stroke="hsl(228.5, 77.2%, 51.5%)" stroke-width="1.5"></path><path d="M107.07 701.89L214.13 654.22" stroke="hsl(228.5, 77.2%, 51.5%)" stroke-width="1.5"></path><path d="M107.07 701.89L190.69 558.31" stroke="hsl(228.5, 77.2%, 51.5%)" stroke-width="1.5"></path><path d="M107.07 701.89L68.17 497.88" stroke="hsl(228.5, 77.2%, 51.5%)" stroke-width="1.5"></path><path d="M190.69 558.31L190.69 558.31" stroke="hsl(228.5, 77.2%, 51.5%)" stroke-width="1.5"></path><path d="M190.69 558.31L214.13 654.22" stroke="hsl(228.5, 77.2%, 51.5%)" stroke-width="1.5"></path><path d="M214.13 654.22L214.13 654.22" stroke="hsl(228.5, 77.2%, 51.5%)" stroke-width="1.5"></path><path d="M344.64 515.85L344.64 515.85" stroke="hsl(228.5, 77.2%, 51.5%)" stroke-width="1.5"></path><path d="M344.64 515.85L190.69 558.31" stroke="hsl(228.5, 77.2%, 51.5%)" stroke-width="1.5"></path><path d="M344.64 515.85L508.55 555.11" stroke="hsl(228.5, 77.2%, 51.5%)" stroke-width="1.5"></path><path d="M344.64 515.85L214.13 654.22" stroke="hsl(228.5, 77.2%, 51.5%)" stroke-width="1.5"></path><path d="M344.64 515.85L411.51 700.03" stroke="hsl(228.5, 77.2%, 51.5%)" stroke-width="1.5"></path><path d="M344.64 515.85L500.82 666.53" stroke="hsl(228.5, 77.2%, 51.5%)" stroke-width="1.5"></path><path d="M411.51 700.03L411.51 700.03" stroke="hsl(228.5, 77.2%, 51.5%)" stroke-width="1.5"></path><path d="M411.51 700.03L500.82 666.53" stroke="hsl(228.5, 77.2%, 51.5%)" stroke-width="1.5"></path><path d="M411.51 700.03L508.55 555.11" stroke="hsl(228.5, 77.2%, 51.5%)" stroke-width="1.5"></path><path d="M411.51 700.03L214.13 654.22" stroke="hsl(228.5, 77.2%, 51.5%)" stroke-width="1.5"></path><path d="M508.55 555.11L508.55 555.11" stroke="hsl(228.5, 77.2%, 51.5%)" stroke-width="1.5"></path><path d="M508.55 555.11L500.82 666.53" stroke="hsl(228.5, 77.2%, 51.5%)" stroke-width="1.5"></path><path d="M508.55 555.11L655.7 500.67" stroke="hsl(228.5, 77.2%, 51.5%)" stroke-width="1.5"></path><path d="M500.82 666.53L500.82 666.53" stroke="hsl(228.5, 77.2%, 51.5%)" stroke-width="1.5"></path><path d="M655.7 500.67L655.7 500.67" stroke="hsl(228.5, 77.2%, 51.5%)" stroke-width="1.5"></path><path d="M655.7 500.67L687.73 655.25" stroke="hsl(228.5, 77.2%, 51.5%)" stroke-width="1.5"></path><path d="M687.73 655.25L687.73 655.25" stroke="hsl(228.5, 77.2%, 51.5%)" stroke-width="1.5"></path><path d="M687.73 655.25L858.11 661.37" stroke="hsl(228.5, 77.2%, 51.5%)" stroke-width="1.5"></path><path d="M687.73 655.25L500.82 666.53" stroke="hsl(228.5, 77.2%, 51.5%)" stroke-width="1.5"></path><path d="M687.73 655.25L819.56 509.26" stroke="hsl(228.5, 77.2%, 51.5%)" stroke-width="1.5"></path><path d="M806.43 362.64L806.43 362.64" stroke="hsl(228.5, 77.2%, 51.5%)" stroke-width="1.5"></path><path d="M806.43 362.64L819.56 509.26" stroke="hsl(228.5, 77.2%, 51.5%)" stroke-width="1.5"></path><path d="M806.43 362.64L655.7 500.67" stroke="hsl(228.5, 77.2%, 51.5%)" stroke-width="1.5"></path><path d="M806.43 362.64L996.82 242.61" stroke="hsl(228.5, 77.2%, 51.5%)" stroke-width="1.5"></path><path d="M806.43 362.64L1008.19 529.68" stroke="hsl(228.5, 77.2%, 51.5%)" stroke-width="1.5"></path><path d="M806.43 362.64L1105.91 400.22" stroke="hsl(228.5, 77.2%, 51.5%)" stroke-width="1.5"></path><path d="M819.56 509.26L819.56 509.26" stroke="hsl(228.5, 77.2%, 51.5%)" stroke-width="1.5"></path><path d="M819.56 509.26L858.11 661.37" stroke="hsl(228.5, 77.2%, 51.5%)" stroke-width="1.5"></path><path d="M819.56 509.26L655.7 500.67" stroke="hsl(228.5, 77.2%, 51.5%)" stroke-width="1.5"></path><path d="M819.56 509.26L1008.19 529.68" stroke="hsl(228.5, 77.2%, 51.5%)" stroke-width="1.5"></path><path d="M858.11 661.37L858.11 661.37" stroke="hsl(228.5, 77.2%, 51.5%)" stroke-width="1.5"></path><path d="M858.11 661.37L938.66 706.48" stroke="hsl(228.5, 77.2%, 51.5%)" stroke-width="1.5"></path><path d="M858.11 661.37L1008.19 529.68" stroke="hsl(228.5, 77.2%, 51.5%)" stroke-width="1.5"></path><path d="M858.11 661.37L1096.77 653.01" stroke="hsl(228.5, 77.2%, 51.5%)" stroke-width="1.5"></path><path d="M996.82 242.61L996.82 242.61" stroke="hsl(228.5, 77.2%, 51.5%)" stroke-width="1.5"></path><path d="M996.82 242.61L1151.56 202.3" stroke="hsl(228.5, 77.2%, 51.5%)" stroke-width="1.5"></path><path d="M996.82 242.61L1105.91 400.22" stroke="hsl(228.5, 77.2%, 51.5%)" stroke-width="1.5"></path><path d="M1008.19 529.68L1008.19 529.68" stroke="hsl(228.5, 77.2%, 51.5%)" stroke-width="1.5"></path><path d="M1008.19 529.68L1148.36 555.08" stroke="hsl(228.5, 77.2%, 51.5%)" stroke-width="1.5"></path><path d="M1008.19 529.68L1096.77 653.01" stroke="hsl(228.5, 77.2%, 51.5%)" stroke-width="1.5"></path><path d="M1008.19 529.68L938.66 706.48" stroke="hsl(228.5, 77.2%, 51.5%)" stroke-width="1.5"></path><path d="M938.66 706.48L938.66 706.48" stroke="hsl(228.5, 77.2%, 51.5%)" stroke-width="1.5"></path><path d="M938.66 706.48L1096.77 653.01" stroke="hsl(228.5, 77.2%, 51.5%)" stroke-width="1.5"></path><path d="M938.66 706.48L819.56 509.26" stroke="hsl(228.5, 77.2%, 51.5%)" stroke-width="1.5"></path><path d="M1151.56 202.3L1151.56 202.3" stroke="hsl(228.5, 77.2%, 51.5%)" stroke-width="1.5"></path><path d="M1151.56 202.3L1278.58 228.04" stroke="hsl(228.5, 77.2%, 51.5%)" stroke-width="1.5"></path><path d="M1148.36 555.08L1148.36 555.08" stroke="hsl(228.5, 77.2%, 51.5%)" stroke-width="1.5"></path><path d="M1148.36 555.08L1096.77 653.01" stroke="hsl(228.5, 77.2%, 51.5%)" stroke-width="1.5"></path><path d="M1148.36 555.08L1266.14 641.24" stroke="hsl(228.5, 77.2%, 51.5%)" stroke-width="1.5"></path><path d="M1096.77 653.01L1096.77 653.01" stroke="hsl(228.5, 77.2%, 51.5%)" stroke-width="1.5"></path><path d="M1096.77 653.01L1266.14 641.24" stroke="hsl(228.5, 77.2%, 51.5%)" stroke-width="1.5"></path><path d="M1272.35 -70.75L1272.35 -70.75" stroke="hsl(228.5, 77.2%, 51.5%)" stroke-width="1.5"></path><path d="M1272.35 -70.75L1265.99 82.59" stroke="hsl(228.5, 77.2%, 51.5%)" stroke-width="1.5"></path><path d="M1272.35 -70.75L1440.87 -82.63" stroke="hsl(228.5, 77.2%, 51.5%)" stroke-width="1.5"></path><path d="M1272.35 -70.75L1427.23 108.85" stroke="hsl(228.5, 77.2%, 51.5%)" stroke-width="1.5"></path><path d="M1272.35 -70.75L1151.56 202.3" stroke="hsl(228.5, 77.2%, 51.5%)" stroke-width="1.5"></path><path d="M1272.35 -70.75L1278.58 228.04" stroke="hsl(228.5, 77.2%, 51.5%)" stroke-width="1.5"></path><path d="M1265.99 82.59L1265.99 82.59" stroke="hsl(228.5, 77.2%, 51.5%)" stroke-width="1.5"></path><path d="M1265.99 82.59L1278.58 228.04" stroke="hsl(228.5, 77.2%, 51.5%)" stroke-width="1.5"></path><path d="M1265.99 82.59L1427.23 108.85" stroke="hsl(228.5, 77.2%, 51.5%)" stroke-width="1.5"></path><path d="M1278.58 228.04L1278.58 228.04" stroke="hsl(228.5, 77.2%, 51.5%)" stroke-width="1.5"></path><path d="M1290.2 378.57L1290.2 378.57" stroke="hsl(228.5, 77.2%, 51.5%)" stroke-width="1.5"></path><path d="M1290.2 378.57L1278.58 228.04" stroke="hsl(228.5, 77.2%, 51.5%)" stroke-width="1.5"></path><path d="M1290.2 378.57L1443.68 409.07" stroke="hsl(228.5, 77.2%, 51.5%)" stroke-width="1.5"></path><path d="M1290.2 378.57L1405.34 522.8" stroke="hsl(228.5, 77.2%, 51.5%)" stroke-width="1.5"></path><path d="M1266.14 641.24L1266.14 641.24" stroke="hsl(228.5, 77.2%, 51.5%)" stroke-width="1.5"></path><path d="M1440.87 -82.63L1440.87 -82.63" stroke="hsl(228.5, 77.2%, 51.5%)" stroke-width="1.5"></path><path d="M1440.87 -82.63L1591.9 -100.31" stroke="hsl(228.5, 77.2%, 51.5%)" stroke-width="1.5"></path><path d="M1440.87 -82.63L1427.23 108.85" stroke="hsl(228.5, 77.2%, 51.5%)" stroke-width="1.5"></path><path d="M1427.23 108.85L1427.23 108.85" stroke="hsl(228.5, 77.2%, 51.5%)" stroke-width="1.5"></path><path d="M1427.23 108.85L1433.97 253.92" stroke="hsl(228.5, 77.2%, 51.5%)" stroke-width="1.5"></path><path d="M1433.97 253.92L1433.97 253.92" stroke="hsl(228.5, 77.2%, 51.5%)" stroke-width="1.5"></path><path d="M1433.97 253.92L1572.75 222.32" stroke="hsl(228.5, 77.2%, 51.5%)" stroke-width="1.5"></path><path d="M1433.97 253.92L1443.68 409.07" stroke="hsl(228.5, 77.2%, 51.5%)" stroke-width="1.5"></path><path d="M1433.97 253.92L1278.58 228.04" stroke="hsl(228.5, 77.2%, 51.5%)" stroke-width="1.5"></path><path d="M1433.97 253.92L1290.2 378.57" stroke="hsl(228.5, 77.2%, 51.5%)" stroke-width="1.5"></path><path d="M1433.97 253.92L1606.41 386.42" stroke="hsl(228.5, 77.2%, 51.5%)" stroke-width="1.5"></path><path d="M1443.68 409.07L1443.68 409.07" stroke="hsl(228.5, 77.2%, 51.5%)" stroke-width="1.5"></path><path d="M1443.68 409.07L1405.34 522.8" stroke="hsl(228.5, 77.2%, 51.5%)" stroke-width="1.5"></path><path d="M1443.68 409.07L1606.41 386.42" stroke="hsl(228.5, 77.2%, 51.5%)" stroke-width="1.5"></path><path d="M1405.34 522.8L1405.34 522.8" stroke="hsl(228.5, 77.2%, 51.5%)" stroke-width="1.5"></path><path d="M1405.34 522.8L1266.14 641.24" stroke="hsl(228.5, 77.2%, 51.5%)" stroke-width="1.5"></path><path d="M1405.34 522.8L1603.19 531.13" stroke="hsl(228.5, 77.2%, 51.5%)" stroke-width="1.5"></path><path d="M1591.9 -100.31L1591.9 -100.31" stroke="hsl(228.5, 77.2%, 51.5%)" stroke-width="1.5"></path><path d="M1591.9 -100.31L1596.68 92.81" stroke="hsl(228.5, 77.2%, 51.5%)" stroke-width="1.5"></path><path d="M1596.68 92.81L1596.68 92.81" stroke="hsl(228.5, 77.2%, 51.5%)" stroke-width="1.5"></path><path d="M1596.68 92.81L1572.75 222.32" stroke="hsl(228.5, 77.2%, 51.5%)" stroke-width="1.5"></path><path d="M1596.68 92.81L1427.23 108.85" stroke="hsl(228.5, 77.2%, 51.5%)" stroke-width="1.5"></path><path d="M1572.75 222.32L1572.75 222.32" stroke="hsl(228.5, 77.2%, 51.5%)" stroke-width="1.5"></path><path d="M1572.75 222.32L1606.41 386.42" stroke="hsl(228.5, 77.2%, 51.5%)" stroke-width="1.5"></path><path d="M1572.75 222.32L1427.23 108.85" stroke="hsl(228.5, 77.2%, 51.5%)" stroke-width="1.5"></path><path d="M1572.75 222.32L1443.68 409.07" stroke="hsl(228.5, 77.2%, 51.5%)" stroke-width="1.5"></path><path d="M1606.41 386.42L1606.41 386.42" stroke="hsl(228.5, 77.2%, 51.5%)" stroke-width="1.5"></path><path d="M1606.41 386.42L1603.19 531.13" stroke="hsl(228.5, 77.2%, 51.5%)" stroke-width="1.5"></path><path d="M1606.41 386.42L1405.34 522.8" stroke="hsl(228.5, 77.2%, 51.5%)" stroke-width="1.5"></path><path d="M1606.41 386.42L1556.84 653.83" stroke="hsl(228.5, 77.2%, 51.5%)" stroke-width="1.5"></path><path d="M1603.19 531.13L1603.19 531.13" stroke="hsl(228.5, 77.2%, 51.5%)" stroke-width="1.5"></path><path d="M1603.19 531.13L1556.84 653.83" stroke="hsl(228.5, 77.2%, 51.5%)" stroke-width="1.5"></path><path d="M1603.19 531.13L1443.68 409.07" stroke="hsl(228.5, 77.2%, 51.5%)" stroke-width="1.5"></path><path d="M1603.19 531.13L1572.75 222.32" stroke="hsl(228.5, 77.2%, 51.5%)" stroke-width="1.5"></path><path d="M1603.19 531.13L1433.97 253.92" stroke="hsl(228.5, 77.2%, 51.5%)" stroke-width="1.5"></path><path d="M1556.84 653.83L1556.84 653.83" stroke="hsl(228.5, 77.2%, 51.5%)" stroke-width="1.5"></path><path d="M1556.84 653.83L1405.34 522.8" stroke="hsl(228.5, 77.2%, 51.5%)" stroke-width="1.5"></path><path d="M1556.84 653.83L1443.68 409.07" stroke="hsl(228.5, 77.2%, 51.5%)" stroke-width="1.5"></path><circle r="25" cx="-64.02" cy="536.39" fill="url(#SvgjsRadialGradient1001)"></circle><circle r="25" cx="1105.91" cy="400.22" fill="url(#SvgjsRadialGradient1001)"></circle><circle r="5" cx="68.17" cy="497.88" fill="#8b9ad9"></circle><circle r="5" cx="107.07" cy="701.89" fill="#8b9ad9"></circle><circle r="5" cx="190.69" cy="558.31" fill="#8b9ad9"></circle><circle r="5" cx="214.13" cy="654.22" fill="#8b9ad9"></circle><circle r="5" cx="344.64" cy="515.85" fill="#8b9ad9"></circle><circle r="5" cx="411.51" cy="700.03" fill="#8b9ad9"></circle><circle r="5" cx="508.55" cy="555.11" fill="#8b9ad9"></circle><circle r="5" cx="500.82" cy="666.53" fill="#8b9ad9"></circle><circle r="5" cx="655.7" cy="500.67" fill="#8b9ad9"></circle><circle r="5" cx="687.73" cy="655.25" fill="#8b9ad9"></circle><circle r="5" cx="806.43" cy="362.64" fill="#8b9ad9"></circle><circle r="5" cx="819.56" cy="509.26" fill="#8b9ad9"></circle><circle r="5" cx="858.11" cy="661.37" fill="#8b9ad9"></circle><circle r="5" cx="996.82" cy="242.61" fill="#8b9ad9"></circle><circle r="5" cx="1008.19" cy="529.68" fill="#8b9ad9"></circle><circle r="5" cx="938.66" cy="706.48" fill="#8b9ad9"></circle><circle r="5" cx="1151.56" cy="202.3" fill="#8b9ad9"></circle><circle r="5" cx="1148.36" cy="555.08" fill="#8b9ad9"></circle><circle r="5" cx="1096.77" cy="653.01" fill="#8b9ad9"></circle><circle r="5" cx="1272.35" cy="-70.75" fill="#8b9ad9"></circle><circle r="5" cx="1265.99" cy="82.59" fill="#8b9ad9"></circle><circle r="5" cx="1278.58" cy="228.04" fill="#8b9ad9"></circle><circle r="5" cx="1290.2" cy="378.57" fill="#8b9ad9"></circle><circle r="5" cx="1266.14" cy="641.24" fill="#8b9ad9"></circle><circle r="5" cx="1440.87" cy="-82.63" fill="#8b9ad9"></circle><circle r="5" cx="1427.23" cy="108.85" fill="#8b9ad9"></circle><circle r="5" cx="1433.97" cy="253.92" fill="#8b9ad9"></circle><circle r="5" cx="1443.68" cy="409.07" fill="#8b9ad9"></circle><circle r="5" cx="1405.34" cy="522.8" fill="#8b9ad9"></circle><circle r="5" cx="1591.9" cy="-100.31" fill="#8b9ad9"></circle><circle r="5" cx="1596.68" cy="92.81" fill="#8b9ad9"></circle><circle r="5" cx="1572.75" cy="222.32" fill="#8b9ad9"></circle><circle r="5" cx="1606.41" cy="386.42" fill="#8b9ad9"></circle><circle r="5" cx="1603.19" cy="531.13" fill="#8b9ad9"></circle><circle r="5" cx="1556.84" cy="653.83" fill="#8b9ad9"></circle></g><defs><mask id="SvgjsMask1000"><rect width="1440" height="560" fill="#ffffff"></rect></mask><radialGradient id="SvgjsRadialGradient1001"><stop stop-color="#ffffff" offset="0.1"></stop><stop stop-color="#1735b3" offset="0.2"></stop><stop stop-color="rgba(23, 53, 179, 0)" offset="1"></stop></radialGradient></defs></svg>